<svg width="24" height="24" viewBox="0 0 24 24" fill="none" xmlns="http://www.w3.org/2000/svg">
<path d="M2.81462 15.8902C2.53675 15.9397 2.30393 15.9886 2.06889 16.0217C1.03464 16.1672 0.222345 15.5222 0.0703942 14.492C-0.15052 12.9961 0.985264 11.3581 2.06947 10.9081C2.43637 10.7559 2.86533 10.7531 3.37123 10.6634C4.71948 7.5602 7.28226 6.04292 10.7623 5.83151C10.8135 5.2604 10.8641 4.69659 10.9174 4.10348C10.7671 4.04191 10.5868 4.01848 10.4897 3.91619C10.3484 3.76731 10.1854 3.56195 10.1848 3.38013C10.1842 3.22405 10.3789 2.95752 10.5216 2.93198C10.9167 2.86147 11.3477 2.81316 11.7309 2.90123C12.2203 3.01371 12.2906 3.4028 11.9788 3.80275C11.9147 3.86909 11.8733 3.95398 11.8605 4.04528C11.8865 4.55348 11.9309 5.06061 11.9652 5.51398C12.8812 5.59571 13.757 5.6397 14.6226 5.75736C17.4546 6.14222 19.33 7.73424 20.3528 10.3741C20.3699 10.4182 20.3902 10.4612 20.4115 10.5036C20.4219 10.5182 20.4341 10.5315 20.4479 10.5431C20.9185 10.5431 21.4021 10.4795 21.8624 10.5563C22.8495 10.7207 23.5871 11.2537 23.8322 12.2704C24.0773 13.2871 23.6872 14.1309 22.9404 14.8015C22.2062 15.4609 21.3104 15.6423 20.3405 15.5181C20.3043 15.5481 20.273 15.5834 20.2477 15.623C19.1633 18.1743 17.1517 19.6705 14.6 20.5109C12.3839 21.2464 9.99743 21.2965 7.75243 20.6545C5.27455 19.9694 3.48323 18.5388 2.81462 15.8902ZM10.8828 19.8341C11.4081 19.7894 11.9369 19.7692 12.458 19.6961C14.5481 19.4024 16.3976 18.6041 17.8162 16.9925C20.3062 14.1641 19.6865 9.01641 15.3434 7.58863C13.7352 7.06037 12.0565 6.73524 10.3498 6.84474C8.43937 6.96738 6.7732 7.69707 5.54079 9.2086C4.3978 10.6101 3.89364 12.2735 3.85224 14.0557C3.79212 16.6423 5.05287 18.3998 7.48992 19.2578C8.58222 19.6315 9.72782 19.8262 10.8823 19.8339L10.8828 19.8341ZM2.92988 11.6891C2.88914 11.6835 2.84781 11.6841 2.80723 11.6906C1.86797 11.9672 0.944635 13.5794 1.18399 14.5145C1.25651 14.798 1.43612 14.9665 1.72091 14.9721C2.03076 14.9782 2.34159 14.9399 2.56836 14.9261C2.69408 13.7982 2.81126 12.7486 2.92959 11.6889L2.92988 11.6891ZM20.7419 14.1527C21.2602 14.1439 21.7578 13.9473 22.1422 13.5993C22.6645 13.1254 22.7263 12.4071 22.2767 11.993C21.8403 11.5911 21.3172 11.4754 20.7419 11.5924V14.1527Z" fill="#A2A6AF"/>
<path d="M12.4108 14.8574C12.6441 14.9004 12.9033 14.895 13.1024 15.0014C13.1929 15.0512 13.2724 15.1188 13.3359 15.2002C13.3995 15.2816 13.4459 15.375 13.4722 15.4749C13.5123 15.7478 13.2757 15.8879 13.0157 15.9219C12.8899 15.9387 12.7621 15.9313 12.6391 15.9C12.4171 15.8332 12.1819 15.8241 11.9554 15.8733C11.729 15.9226 11.5187 16.0286 11.3446 16.1815C11.147 16.3437 10.9155 16.4665 10.717 16.2261C10.5412 16.0132 10.6219 15.7661 10.7973 15.5758C10.9983 15.3465 11.2466 15.1634 11.5252 15.0394C11.8037 14.9153 12.1059 14.8533 12.4108 14.8574Z" fill="#A2A6AF"/>
<path d="M8.44668 10.5383C8.98973 10.557 9.32936 10.9446 9.29998 11.5119C9.27653 11.964 8.91348 12.3284 8.50546 12.3096C8.04441 12.2884 7.67894 11.8275 7.69864 11.2915C7.71871 10.7481 7.94424 10.5209 8.44668 10.5383Z" fill="#A2A6AF"/>
<path d="M13.6939 11.2438C13.6929 10.7906 13.8667 10.5852 14.2572 10.5783C14.7619 10.5694 15.0788 10.8569 15.0673 11.3131C15.0572 11.706 14.7482 12.0391 14.3853 12.048C13.9708 12.0581 13.6949 11.7369 13.6939 11.2438Z" fill="#A2A6AF"/>
</svg>
